M48
; DRILL file {KiCad 9.0.3} date 2026-01-03T16:36:47+0000
; FORMAT={-:-/ absolute / inch / decimal}
; #@! TF.CreationDate,2026-01-03T16:36:47+00:00
; #@! TF.GenerationSoftware,Kicad,Pcbnew,9.0.3
; #@! TF.FileFunction,MixedPlating,1,2
FMAT,2
INCH
; #@! TA.AperFunction,Plated,PTH,ViaDrill
T1C0.0120
; #@! TA.AperFunction,Plated,PTH,ViaDrill
T2C0.0150
; #@! TA.AperFunction,Plated,PTH,ComponentDrill
T3C0.0236
; #@! TA.AperFunction,Plated,PTH,ComponentDrill
T4C0.0315
; #@! TA.AperFunction,Plated,PTH,ComponentDrill
T5C0.0394
; #@! TA.AperFunction,Plated,PTH,ComponentDrill
T6C0.0433
; #@! TA.AperFunction,Plated,PTH,ComponentDrill
T7C0.1260
; #@! TA.AperFunction,NonPlated,NPTH,ComponentDrill
T8C0.0197
%
G90
G05
T1
X4.96Y-4.71
X5.67Y-3.31
X6.0Y-4.475
T2
X5.73Y-4.64
T4
X3.0Y-2.67
X3.0Y-2.79
X3.4Y-2.67
X3.4Y-2.79
X3.56Y-5.1709
X3.56Y-5.5709
X3.878Y-5.1709
X3.878Y-5.5709
X4.0323Y-2.7362
X4.0323Y-2.8583
X4.4323Y-2.7362
X4.4323Y-2.8583
X4.8031Y-2.4969
X4.8031Y-2.8969
X4.81Y-5.24
X4.81Y-5.35
X4.82Y-5.13
X4.8513Y-6.04
X4.93Y-2.42
X4.93Y-2.55
X4.93Y-6.04
X4.96Y-2.66
X5.0098Y-3.1791
X5.01Y-4.89
X5.01Y-5.01
X5.01Y-5.47
X5.01Y-5.69
X5.0169Y-5.13
X5.0231Y-2.31
X5.0731Y-4.11
X5.11Y-5.12
X5.11Y-5.24
X5.11Y-5.58
X5.13Y-2.09
X5.2031Y-3.36
X5.2031Y-3.94
X5.2031Y-4.61
X5.2031Y-5.23
X5.21Y-5.35
X5.22Y-2.31
X5.23Y-2.2
X5.23Y-2.42
X5.26Y-2.66
X5.27Y-4.11
X5.3231Y-2.31
X5.3231Y-2.43
X5.33Y-2.55
X5.35Y-3.4816
X5.35Y-3.6784
X5.39Y-4.1
X5.39Y-4.5
X5.4Y-3.36
X5.4Y-3.94
X5.4Y-4.61
X5.4Y-5.23
X5.4098Y-3.1791
X5.41Y-4.89
X5.41Y-5.01
X5.41Y-5.12
X5.41Y-5.47
X5.41Y-5.58
X5.41Y-5.69
X5.46Y-3.8
X5.52Y-2.31
X5.52Y-2.43
X5.53Y-2.09
X5.53Y-2.2
X5.53Y-2.56
X5.53Y-2.68
X5.53Y-2.8
X5.53Y-2.92
X5.53Y-3.0598
X5.53Y-3.1598
X5.53Y-3.2598
X5.53Y-3.3598
X5.53Y-3.4598
X5.53Y-3.5598
X5.53Y-3.6598
X5.53Y-3.94
X5.53Y-4.04
X5.53Y-4.14
X5.53Y-4.24
X5.53Y-4.34
X5.53Y-4.44
X5.53Y-4.54
X5.53Y-4.64
X5.53Y-4.92
X5.53Y-5.02
X5.53Y-5.12
X5.53Y-5.22
X5.53Y-5.32
X5.53Y-5.42
X5.53Y-5.52
X5.54Y-4.78
X5.65Y-2.1
X5.65Y-2.2
X5.65Y-2.3
X5.65Y-2.4
X5.83Y-3.0598
X5.83Y-3.1598
X5.83Y-3.2598
X5.83Y-3.3598
X5.83Y-3.4598
X5.83Y-3.5598
X5.83Y-3.6598
X5.83Y-3.94
X5.83Y-4.04
X5.83Y-4.14
X5.83Y-4.24
X5.83Y-4.34
X5.83Y-4.44
X5.83Y-4.54
X5.83Y-4.64
X5.83Y-4.92
X5.83Y-5.02
X5.83Y-5.12
X5.83Y-5.22
X5.83Y-5.32
X5.83Y-5.42
X5.83Y-5.52
X5.86Y-3.8
X5.93Y-2.56
X5.93Y-2.68
X5.93Y-2.8
X5.93Y-2.92
X5.94Y-4.78
X5.95Y-2.1
X5.95Y-2.2
X5.95Y-2.3
X5.95Y-2.4
X5.95Y-3.16
X5.95Y-3.8
X5.95Y-3.94
X5.95Y-4.06
X5.95Y-4.28
X5.95Y-4.4
X5.95Y-4.92
X5.95Y-5.02
X5.95Y-5.13
X5.95Y-5.37
X5.95Y-5.49
X5.95Y-5.61
X5.96Y-3.36
X5.96Y-5.25
X6.01Y-3.48
X6.01Y-3.6769
X6.05Y-4.17
X6.07Y-2.2
X6.07Y-2.32
X6.08Y-2.08
X6.1Y-4.75
X6.1431Y-4.52
X6.1569Y-3.36
X6.1569Y-5.25
X6.17Y-2.62
X6.17Y-3.02
X6.2Y-4.65
X6.25Y-3.8
X6.25Y-4.92
X6.25Y-5.02
X6.2769Y-2.08
X6.29Y-2.74
X6.29Y-2.9369
X6.3Y-4.75
X6.34Y-4.52
X6.35Y-3.16
X6.35Y-3.94
X6.35Y-4.06
X6.35Y-4.17
X6.35Y-4.28
X6.35Y-4.4
X6.35Y-5.13
X6.35Y-5.37
X6.35Y-5.49
X6.35Y-5.61
X6.36Y-3.6231
X6.36Y-3.82
X6.41Y-2.62
X6.41Y-3.02
X6.43Y-5.94
X6.46Y-4.93
X6.46Y-5.1269
X6.46Y-5.23
X6.46Y-5.63
X6.47Y-2.2
X6.47Y-2.32
X6.5087Y-5.94
X6.53Y-2.62
X6.53Y-3.02
T5
X2.8504Y-4.0157
X2.8504Y-4.1157
X2.8504Y-4.2157
X2.8504Y-4.3157
X2.8504Y-4.4157
X2.8504Y-4.5157
X2.8504Y-4.6157
X2.8504Y-4.7157
X3.1102Y-3.6417
X3.1102Y-5.5709
X3.1102Y-6.2008
X3.2087Y-3.6417
X3.2087Y-5.5709
X3.2087Y-6.2008
X3.3071Y-3.6417
X3.3071Y-5.5709
X3.3071Y-6.2008
X4.1339Y-3.6417
X4.1339Y-5.5709
X4.1339Y-6.2008
X4.2323Y-3.6417
X4.2323Y-5.5709
X4.2323Y-6.2008
X4.3307Y-3.6417
X4.3307Y-5.5709
X4.3307Y-6.2008
X4.5906Y-4.0157
X4.5906Y-4.1157
X4.5906Y-4.2157
X4.5906Y-4.3157
X4.5906Y-4.4157
X4.5906Y-4.5157
X4.5906Y-4.6157
X4.5906Y-4.7157
X4.8189Y-4.0157
X4.8189Y-4.1157
X4.8189Y-4.2157
X4.8189Y-4.3157
X4.8189Y-4.4157
X4.8189Y-4.5157
X4.8189Y-4.6157
X4.8189Y-4.7157
X4.85Y-5.51
X4.85Y-5.61
X5.0098Y-3.3268
X5.02Y-4.41
X5.2559Y-2.7854
X5.29Y-4.75
X5.39Y-4.75
X5.57Y-6.0
X5.57Y-6.1
X5.67Y-6.0
X5.67Y-6.1
X5.77Y-6.0
X5.77Y-6.1
X5.87Y-6.0
X5.87Y-6.1
X5.97Y-6.0
X5.97Y-6.1
X6.28Y-5.25
X6.29Y-3.37
X6.29Y-3.47
X6.5591Y-4.0157
X6.5591Y-4.1157
X6.5591Y-4.2157
X6.5591Y-4.3157
X6.5591Y-4.4157
X6.5591Y-4.5157
X6.5591Y-4.6157
X6.5591Y-4.7157
T6
X5.17Y-5.81
X5.17Y-6.21
X6.28Y-5.81
X6.28Y-6.21
T7
X3.1299Y-2.9921
X3.7106Y-5.7185
X5.0984Y-2.9921
X5.6791Y-5.7185
T8
X4.6654Y-2.3484
X4.6654Y-2.376
X4.6654Y-3.1358
X4.6654Y-3.1634
X4.6654Y-3.8445
X4.6654Y-3.872
X4.6654Y-4.8681
X4.6654Y-4.8957
X4.6654Y-5.498
X4.6654Y-5.5256
X4.6654Y-5.8917
X4.6654Y-5.9193
X4.6752Y-2.3169
X4.6752Y-2.4075
X4.6752Y-3.1043
X4.6752Y-3.1949
X4.6752Y-3.813
X4.6752Y-3.9035
X4.6752Y-4.8366
X4.6752Y-4.9272
X4.6752Y-5.4665
X4.6752Y-5.5571
X4.6752Y-5.8602
X4.6752Y-5.9508
X4.7343Y-2.3169
X4.7343Y-2.4075
X4.7343Y-3.1043
X4.7343Y-3.1949
X4.7343Y-3.813
X4.7343Y-3.9035
X4.7343Y-4.8366
X4.7343Y-4.9272
X4.7343Y-5.4665
X4.7343Y-5.5571
X4.7343Y-5.8602
X4.7343Y-5.9508
X4.7441Y-2.3484
X4.7441Y-2.376
X4.7441Y-3.1358
X4.7441Y-3.1634
X4.7441Y-3.8445
X4.7441Y-3.872
X4.7441Y-4.8681
X4.7441Y-4.8957
X4.7441Y-5.498
X4.7441Y-5.5256
X4.7441Y-5.8917
X4.7441Y-5.9193
T3
G00X3.2283Y-2.0283
M15
G01X3.189Y-2.0283
M16
G05
G00X3.2283Y-2.1504
M15
G01X3.189Y-2.1504
M16
G05
G00X3.2283Y-2.4772
M15
G01X3.189Y-2.4772
M16
G05
G00X3.189Y-3.822
M15
G01X3.2283Y-3.822
M16
G05
G00X3.189Y-4.1488
M15
G01X3.2283Y-4.1488
M16
G05
G00X3.189Y-4.2709
M15
G01X3.2283Y-4.2709
M16
G05
G00X3.2283Y-4.4299
M15
G01X3.189Y-4.4299
M16
G05
G00X3.2283Y-4.552
M15
G01X3.189Y-4.552
M16
G05
G00X3.2283Y-4.8787
M15
G01X3.189Y-4.8787
M16
G05
G00X3.7402Y-2.0283
M15
G01X3.7008Y-2.0283
M16
G05
G00X3.7402Y-2.1504
M15
G01X3.7008Y-2.1504
M16
G05
G00X3.7402Y-2.4772
M15
G01X3.7008Y-2.4772
M16
G05
G00X3.7008Y-2.7197
M15
G01X3.7402Y-2.7197
M16
G05
G00X3.7008Y-3.0465
M15
G01X3.7402Y-3.0465
M16
G05
G00X3.7008Y-3.1685
M15
G01X3.7402Y-3.1685
M16
G05
G00X3.7008Y-3.822
M15
G01X3.7402Y-3.822
M16
G05
G00X3.7008Y-4.1488
M15
G01X3.7402Y-4.1488
M16
G05
G00X3.7008Y-4.2709
M15
G01X3.7402Y-4.2709
M16
G05
G00X3.7008Y-4.4913
M15
G01X3.7402Y-4.4913
M16
G05
G00X3.7008Y-4.8181
M15
G01X3.7402Y-4.8181
M16
G05
G00X3.7008Y-4.9402
M15
G01X3.7402Y-4.9402
M16
G05
G00X4.252Y-2.0283
M15
G01X4.2126Y-2.0283
M16
G05
G00X4.252Y-2.1504
M15
G01X4.2126Y-2.1504
M16
G05
G00X4.252Y-2.4772
M15
G01X4.2126Y-2.4772
M16
G05
G00X4.2126Y-3.822
M15
G01X4.252Y-3.822
M16
G05
G00X4.2126Y-4.1488
M15
G01X4.252Y-4.1488
M16
G05
G00X4.2126Y-4.2709
M15
G01X4.252Y-4.2709
M16
G05
G00X4.252Y-4.4299
M15
G01X4.2126Y-4.4299
M16
G05
G00X4.252Y-4.552
M15
G01X4.2126Y-4.552
M16
G05
G00X4.252Y-4.8787
M15
G01X4.2126Y-4.8787
M16
G05
T6
G00X3.0197Y-3.3602
M15
G01X3.0197Y-3.3327
M16
G05
G00X3.0197Y-5.2894
M15
G01X3.0197Y-5.2618
M16
G05
G00X3.0197Y-5.9193
M15
G01X3.0197Y-5.8917
M16
G05
G00X3.3976Y-3.3602
M15
G01X3.3976Y-3.3327
M16
G05
G00X3.3976Y-5.2894
M15
G01X3.3976Y-5.2618
M16
G05
G00X3.3976Y-5.9193
M15
G01X3.3976Y-5.8917
M16
G05
G00X4.0433Y-3.3602
M15
G01X4.0433Y-3.3327
M16
G05
G00X4.0433Y-5.2894
M15
G01X4.0433Y-5.2618
M16
G05
G00X4.0433Y-5.9193
M15
G01X4.0433Y-5.8917
M16
G05
G00X4.4213Y-3.3602
M15
G01X4.4213Y-3.3327
M16
G05
G00X4.4213Y-5.2894
M15
G01X4.4213Y-5.2618
M16
G05
G00X4.4213Y-5.9193
M15
G01X4.4213Y-5.8917
M16
G05
M30
