%TF.GenerationSoftware,KiCad,Pcbnew,9.0.3*%
%TF.CreationDate,2026-01-03T16:37:14+00:00*%
%TF.ProjectId,state-variable-filter-faceplate,73746174-652d-4766-9172-6961626c652d,rev?*%
%TF.SameCoordinates,Original*%
%TF.FileFunction,Profile,NP*%
%FSLAX46Y46*%
G04 Gerber Fmt 4.6, Leading zero omitted, Abs format (unit mm)*
G04 Created by KiCad (PCBNEW 9.0.3) date 2026-01-03 16:37:14*
%MOMM*%
%LPD*%
G01*
G04 APERTURE LIST*
%TA.AperFunction,Profile*%
%ADD10C,0.050000*%
%TD*%
G04 APERTURE END LIST*
D10*
X111100000Y-85000000D02*
G75*
G02*
X103900000Y-85000000I-3600000J0D01*
G01*
X103900000Y-85000000D02*
G75*
G02*
X111100000Y-85000000I3600000J0D01*
G01*
X69250000Y-169250000D02*
X69250000Y-40750000D01*
X111100000Y-150000000D02*
G75*
G02*
X103900000Y-150000000I-3600000J0D01*
G01*
X103900000Y-150000000D02*
G75*
G02*
X111100000Y-150000000I3600000J0D01*
G01*
X97500000Y-119000000D02*
G75*
G02*
X91500000Y-119000000I-3000000J0D01*
G01*
X91500000Y-119000000D02*
G75*
G02*
X97500000Y-119000000I3000000J0D01*
G01*
X119750000Y-40750000D02*
X119750000Y-169250000D01*
X69250000Y-40750000D02*
X119750000Y-40750000D01*
X84500000Y-119000000D02*
G75*
G02*
X78500000Y-119000000I-3000000J0D01*
G01*
X78500000Y-119000000D02*
G75*
G02*
X84500000Y-119000000I3000000J0D01*
G01*
X84500000Y-102000000D02*
G75*
G02*
X78500000Y-102000000I-3000000J0D01*
G01*
X78500000Y-102000000D02*
G75*
G02*
X84500000Y-102000000I3000000J0D01*
G01*
X85100000Y-150000000D02*
G75*
G02*
X77900000Y-150000000I-3600000J0D01*
G01*
X77900000Y-150000000D02*
G75*
G02*
X85100000Y-150000000I3600000J0D01*
G01*
X97500000Y-102000000D02*
G75*
G02*
X91500000Y-102000000I-3000000J0D01*
G01*
X91500000Y-102000000D02*
G75*
G02*
X97500000Y-102000000I3000000J0D01*
G01*
X85100000Y-85000000D02*
G75*
G02*
X77900000Y-85000000I-3600000J0D01*
G01*
X77900000Y-85000000D02*
G75*
G02*
X85100000Y-85000000I3600000J0D01*
G01*
X85100000Y-134000000D02*
G75*
G02*
X77900000Y-134000000I-3600000J0D01*
G01*
X77900000Y-134000000D02*
G75*
G02*
X85100000Y-134000000I3600000J0D01*
G01*
X84500000Y-58000000D02*
G75*
G02*
X78500000Y-58000000I-3000000J0D01*
G01*
X78500000Y-58000000D02*
G75*
G02*
X84500000Y-58000000I3000000J0D01*
G01*
X97500000Y-58000000D02*
G75*
G02*
X91500000Y-58000000I-3000000J0D01*
G01*
X91500000Y-58000000D02*
G75*
G02*
X97500000Y-58000000I3000000J0D01*
G01*
X97500000Y-74000000D02*
G75*
G02*
X91500000Y-74000000I-3000000J0D01*
G01*
X91500000Y-74000000D02*
G75*
G02*
X97500000Y-74000000I3000000J0D01*
G01*
X110500000Y-119000000D02*
G75*
G02*
X104500000Y-119000000I-3000000J0D01*
G01*
X104500000Y-119000000D02*
G75*
G02*
X110500000Y-119000000I3000000J0D01*
G01*
X110500000Y-102000000D02*
G75*
G02*
X104500000Y-102000000I-3000000J0D01*
G01*
X104500000Y-102000000D02*
G75*
G02*
X110500000Y-102000000I3000000J0D01*
G01*
X110500000Y-58000000D02*
G75*
G02*
X104500000Y-58000000I-3000000J0D01*
G01*
X104500000Y-58000000D02*
G75*
G02*
X110500000Y-58000000I3000000J0D01*
G01*
X119750000Y-169250000D02*
X69250000Y-169250000D01*
X111100000Y-134000000D02*
G75*
G02*
X103900000Y-134000000I-3600000J0D01*
G01*
X103900000Y-134000000D02*
G75*
G02*
X111100000Y-134000000I3600000J0D01*
G01*
M02*
