<?xml version="1.0" encoding="UTF-8" standalone="no"?>
<!-- Created with Inkscape (http://www.inkscape.org/) -->

<svg
   width="50.599995mm"
   height="128.60001mm"
   viewBox="0 0 50.599995 128.60001"
   version="1.1"
   id="svg1"
   xmlns="http://www.w3.org/2000/svg"
   xmlns:svg="http://www.w3.org/2000/svg"
   xmlns:fpd="http://www.schaeffer-ag.de">
  <defs
     id="defs1" />
  <g
     id="layer2"
     style="display:inline"
     transform="translate(-99.199999,-90.700003)">
    <rect
       style="fill:none;stroke:#000000;stroke-width:0.1;stroke-linejoin:round;stroke-dasharray:none"
       id="rect1"
       width="50.5"
       height="128.5"
       x="99.25"
       y="90.75" />
  </g>
  <g
     id="layer3"
     style="display:none"
     transform="translate(-99.199999,-90.700003)">
    <rect
       style="fill:#00ff00;stroke:none;stroke-width:0.866788;stroke-linejoin:round"
       id="rect2"
       width="49"
       height="110"
       x="100"
       y="100" />
  </g>
  <g
     id="layer1"
     transform="translate(-99.199999,-90.700003)">
    <g
       id="layer5">
      <path
         id="path16-3"
         fpd:print_element="0"
         fpd:visible="front back"
         stroke-opacity="1"
         stroke-width="0.1mm"
         stroke="#000000"
         vector-effect="non-scaling-stroke"
         fill-opacity="1"
         fill="#ffffff"
         d="m 26.298669,142.4353 a 1.5,1.5 0 1 1 3,0 1.5,1.5 0 1 1 -3,0"
         style="display:inline;fill:none;fill-rule:evenodd;stroke-linecap:round;stroke-linejoin:round"
         transform="translate(78.951331,73.814699)" />
      <path
         id="path16-8"
         fpd:print_element="0"
         fpd:visible="front back"
         stroke-opacity="1"
         stroke-width="0.1mm"
         stroke="#000000"
         vector-effect="non-scaling-stroke"
         fill-opacity="1"
         fill="#ffffff"
         d="m 26.298669,142.4353 a 1.5,1.5 0 1 1 3,0 1.5,1.5 0 1 1 -3,0"
         style="display:inline;fill:none;fill-rule:evenodd;stroke-linecap:round;stroke-linejoin:round"
         transform="translate(114.45133,73.814699)" />
      <path
         id="path16"
         fpd:print_element="0"
         fpd:visible="front back"
         stroke-opacity="1"
         stroke-width="0.1mm"
         stroke="#000000"
         vector-effect="non-scaling-stroke"
         fill-opacity="1"
         fill="#ffffff"
         d="m 26.298669,142.4353 a 1.5,1.5 0 1 1 3,0 1.5,1.5 0 1 1 -3,0"
         style="display:inline;fill:none;fill-rule:evenodd;stroke-linecap:round;stroke-linejoin:round"
         transform="translate(114.45133,-48.68531)" />
      <path
         id="path40"
         fpd:print_element="0"
         fpd:visible="front back"
         stroke-opacity="1"
         stroke-width="0.1mm"
         stroke="#000000"
         vector-effect="non-scaling-stroke"
         fill-opacity="1"
         fill="#ffffff"
         d="m 26.298669,142.4353 a 1.5,1.5 0 1 1 3,0 1.5,1.5 0 1 1 -3,0"
         style="display:inline;fill:none;fill-rule:evenodd;stroke-linecap:round;stroke-linejoin:round"
         transform="translate(78.951331,-48.685315)" />
      <path
         style="display:inline;fill:none;fill-rule:evenodd;stroke-linecap:round;stroke-linejoin:round"
         d="m 40.657202,81.517206 a 3.1750005,3.1750005 0 1 1 6.350001,0 3.1750005,3.1750005 0 1 1 -6.350001,0"
         fill="#ffffff"
         fill-opacity="1"
         vector-effect="non-scaling-stroke"
         stroke="#000000"
         stroke-width="0.1mm"
         stroke-opacity="1"
         fpd:visible="front back"
         fpd:print_element="0"
         id="path1873-8"
         transform="translate(93.667797,87.482783)" />
      <path
         style="display:inline;fill:none;fill-rule:evenodd;stroke-linecap:round;stroke-linejoin:round"
         d="m 40.657202,81.517206 a 3.1750005,3.1750005 0 1 1 6.350001,0 3.1750005,3.1750005 0 1 1 -6.350001,0"
         fill="#ffffff"
         fill-opacity="1"
         vector-effect="non-scaling-stroke"
         stroke="#000000"
         stroke-width="0.1mm"
         stroke-opacity="1"
         fpd:visible="front back"
         fpd:print_element="0"
         id="path1873-2"
         transform="translate(93.667797,70.482793)" />
      <path
         style="display:inline;fill:none;fill-rule:evenodd;stroke-linecap:round;stroke-linejoin:round"
         d="m 40.657202,81.517206 a 3.1750005,3.1750005 0 1 1 6.350001,0 3.1750005,3.1750005 0 1 1 -6.350001,0"
         fill="#ffffff"
         fill-opacity="1"
         vector-effect="non-scaling-stroke"
         stroke="#000000"
         stroke-width="0.1mm"
         stroke-opacity="1"
         fpd:visible="front back"
         fpd:print_element="0"
         id="path1873-3"
         transform="translate(67.667796,87.482783)" />
      <path
         style="display:inline;fill:none;fill-rule:evenodd;stroke-linecap:round;stroke-linejoin:round"
         d="m 40.657202,81.517206 a 3.1750005,3.1750005 0 1 1 6.350001,0 3.1750005,3.1750005 0 1 1 -6.350001,0"
         fill="#ffffff"
         fill-opacity="1"
         vector-effect="non-scaling-stroke"
         stroke="#000000"
         stroke-width="0.1mm"
         stroke-opacity="1"
         fpd:visible="front back"
         fpd:print_element="0"
         id="path1873-5"
         transform="translate(67.667799,70.482793)" />
      <path
         style="display:inline;fill:none;fill-rule:evenodd;stroke-linecap:round;stroke-linejoin:round"
         d="m 40.657202,81.517206 a 3.1750005,3.1750005 0 1 1 6.350001,0 3.1750005,3.1750005 0 1 1 -6.350001,0"
         fill="#ffffff"
         fill-opacity="1"
         vector-effect="non-scaling-stroke"
         stroke="#000000"
         stroke-width="0.1mm"
         stroke-opacity="1"
         fpd:visible="front back"
         fpd:print_element="0"
         id="path1873-4"
         transform="translate(80.667796,42.482783)" />
      <path
         style="display:inline;fill:none;fill-rule:evenodd;stroke-linecap:round;stroke-linejoin:round"
         d="m 40.657202,81.517206 a 3.1750005,3.1750005 0 1 1 6.350001,0 3.1750005,3.1750005 0 1 1 -6.350001,0"
         fill="#ffffff"
         fill-opacity="1"
         vector-effect="non-scaling-stroke"
         stroke="#000000"
         stroke-width="0.1mm"
         stroke-opacity="1"
         fpd:visible="front back"
         fpd:print_element="0"
         id="path1873-0"
         transform="translate(93.667797,26.482783)" />
      <path
         style="display:inline;fill:none;fill-rule:evenodd;stroke-linecap:round;stroke-linejoin:round"
         d="m 40.657202,81.517206 a 3.1750005,3.1750005 0 1 1 6.350001,0 3.1750005,3.1750005 0 1 1 -6.350001,0"
         fill="#ffffff"
         fill-opacity="1"
         vector-effect="non-scaling-stroke"
         stroke="#000000"
         stroke-width="0.1mm"
         stroke-opacity="1"
         fpd:visible="front back"
         fpd:print_element="0"
         id="path1873-9"
         transform="translate(80.667799,26.482783)" />
      <path
         style="display:inline;fill:none;fill-rule:evenodd;stroke-linecap:round;stroke-linejoin:round"
         d="m 40.657202,81.517206 a 3.1750005,3.1750005 0 1 1 6.350001,0 3.1750005,3.1750005 0 1 1 -6.350001,0"
         fill="#ffffff"
         fill-opacity="1"
         vector-effect="non-scaling-stroke"
         stroke="#000000"
         stroke-width="0.1mm"
         stroke-opacity="1"
         fpd:visible="front back"
         fpd:print_element="0"
         id="path1873"
         transform="translate(67.667796,26.482783)" />
      <path
         style="display:inline;fill:none;fill-rule:evenodd;stroke-linecap:round;stroke-linejoin:round"
         id="path4089-3"
         fpd:print_element="0"
         fpd:visible="front back"
         stroke-opacity="1"
         stroke-width="0.1mm"
         stroke="#000000"
         vector-effect="non-scaling-stroke"
         fill-opacity="1"
         fill="#ffffff"
         d="m 97.714965,36.669377 a 3.5000025,3.5000025 0 1 1 7.000005,0 3.5000025,3.5000025 0 1 1 -7.000005,0"
         transform="translate(36.28503,96.330614)" />
      <path
         style="display:inline;fill:none;fill-rule:evenodd;stroke-linecap:round;stroke-linejoin:round"
         id="path4089-84"
         fpd:print_element="0"
         fpd:visible="front back"
         stroke-opacity="1"
         stroke-width="0.1mm"
         stroke="#000000"
         vector-effect="non-scaling-stroke"
         fill-opacity="1"
         fill="#ffffff"
         d="m 97.714965,36.669377 a 3.5000025,3.5000025 0 1 1 7.000005,0 3.5000025,3.5000025 0 1 1 -7.000005,0"
         transform="translate(10.285032,96.330614)" />
      <path
         style="display:inline;fill:none;fill-rule:evenodd;stroke-linecap:round;stroke-linejoin:round"
         id="path4089-05"
         fpd:print_element="0"
         fpd:visible="front back"
         stroke-opacity="1"
         stroke-width="0.1mm"
         stroke="#000000"
         vector-effect="non-scaling-stroke"
         fill-opacity="1"
         fill="#ffffff"
         d="m 97.714965,36.669377 a 3.5000025,3.5000025 0 1 1 7.000005,0 3.5000025,3.5000025 0 1 1 -7.000005,0"
         transform="translate(36.28503,147.33061)" />
      <path
         style="display:inline;fill:none;fill-rule:evenodd;stroke-linecap:round;stroke-linejoin:round"
         id="path4089-8"
         fpd:print_element="0"
         fpd:visible="front back"
         stroke-opacity="1"
         stroke-width="0.1mm"
         stroke="#000000"
         vector-effect="non-scaling-stroke"
         fill-opacity="1"
         fill="#ffffff"
         d="m 97.714965,36.669377 a 3.5000025,3.5000025 0 1 1 7.000005,0 3.5000025,3.5000025 0 1 1 -7.000005,0"
         transform="translate(10.28503,147.33061)" />
      <path
         style="display:inline;fill:none;fill-rule:evenodd;stroke-linecap:round;stroke-linejoin:round"
         id="path4089-0"
         fpd:print_element="0"
         fpd:visible="front back"
         stroke-opacity="1"
         stroke-width="0.1mm"
         stroke="#000000"
         vector-effect="non-scaling-stroke"
         fill-opacity="1"
         fill="#ffffff"
         d="m 97.714965,36.669377 a 3.5000025,3.5000025 0 1 1 7.000005,0 3.5000025,3.5000025 0 1 1 -7.000005,0"
         transform="translate(36.285032,163.33061)" />
      <path
         style="display:inline;fill:none;fill-rule:evenodd;stroke-linecap:round;stroke-linejoin:round"
         id="path4089"
         fpd:print_element="0"
         fpd:visible="front back"
         stroke-opacity="1"
         stroke-width="0.1mm"
         stroke="#000000"
         vector-effect="non-scaling-stroke"
         fill-opacity="1"
         fill="#ffffff"
         d="m 97.714965,36.669377 a 3.5000025,3.5000025 0 1 1 7.000005,0 3.5000025,3.5000025 0 1 1 -7.000005,0"
         transform="translate(10.285032,163.33061)" />
    </g>
    <g
       id="layer6"
       style="display:none">
      <path
         id="path17-3"
         stroke-opacity="1"
         stroke-width="0.1mm"
         stroke="#ff0000"
         vector-effect="non-scaling-stroke"
         fill="none"
         d="m 26.868669,142.4353 h 1.86 m -0.93,0.93 v -1.86"
         style="display:inline;fill-rule:evenodd;stroke-linecap:round;stroke-linejoin:round"
         transform="translate(78.951331,73.814699)" />
      <path
         id="path17-5"
         stroke-opacity="1"
         stroke-width="0.1mm"
         stroke="#ff0000"
         vector-effect="non-scaling-stroke"
         fill="none"
         d="m 26.868669,142.4353 h 1.86 m -0.93,0.93 v -1.86"
         style="display:inline;fill-rule:evenodd;stroke-linecap:round;stroke-linejoin:round"
         transform="translate(114.45133,73.814699)" />
      <path
         id="path17"
         stroke-opacity="1"
         stroke-width="0.1mm"
         stroke="#ff0000"
         vector-effect="non-scaling-stroke"
         fill="none"
         d="m 26.868669,142.4353 h 1.86 m -0.93,0.93 v -1.86"
         style="display:inline;fill-rule:evenodd;stroke-linecap:round;stroke-linejoin:round"
         transform="translate(114.45133,-48.68531)" />
      <path
         id="path64"
         stroke-opacity="1"
         stroke-width="0.1mm"
         stroke="#ff0000"
         vector-effect="non-scaling-stroke"
         fill="none"
         d="m 26.868669,142.4353 h 1.86 m -0.93,0.93 v -1.86"
         style="display:inline;fill-rule:evenodd;stroke-linecap:round;stroke-linejoin:round"
         transform="translate(78.951331,-48.685315)" />
      <path
         style="display:inline;fill-rule:evenodd;stroke-linecap:round;stroke-linejoin:round"
         d="m 42.902202,81.517206 h 1.86 m -0.929999,0.93 v -1.86"
         fill="none"
         vector-effect="non-scaling-stroke"
         stroke="#ff0000"
         stroke-width="0.1mm"
         stroke-opacity="1"
         id="path1875-5"
         transform="translate(93.667797,87.482783)" />
      <path
         style="display:inline;fill-rule:evenodd;stroke-linecap:round;stroke-linejoin:round"
         d="m 42.902202,81.517206 h 1.86 m -0.929999,0.93 v -1.86"
         fill="none"
         vector-effect="non-scaling-stroke"
         stroke="#ff0000"
         stroke-width="0.1mm"
         stroke-opacity="1"
         id="path1875-1"
         transform="translate(93.667797,70.482793)" />
      <path
         style="display:inline;fill-rule:evenodd;stroke-linecap:round;stroke-linejoin:round"
         d="m 42.902202,81.517206 h 1.86 m -0.929999,0.93 v -1.86"
         fill="none"
         vector-effect="non-scaling-stroke"
         stroke="#ff0000"
         stroke-width="0.1mm"
         stroke-opacity="1"
         id="path1875-9"
         transform="translate(67.667796,87.482783)" />
      <path
         style="display:inline;fill-rule:evenodd;stroke-linecap:round;stroke-linejoin:round"
         d="m 42.902202,81.517206 h 1.86 m -0.929999,0.93 v -1.86"
         fill="none"
         vector-effect="non-scaling-stroke"
         stroke="#ff0000"
         stroke-width="0.1mm"
         stroke-opacity="1"
         id="path1875-8"
         transform="translate(67.667799,70.482793)" />
      <path
         style="display:inline;fill-rule:evenodd;stroke-linecap:round;stroke-linejoin:round"
         d="m 42.902202,81.517206 h 1.86 m -0.929999,0.93 v -1.86"
         fill="none"
         vector-effect="non-scaling-stroke"
         stroke="#ff0000"
         stroke-width="0.1mm"
         stroke-opacity="1"
         id="path1875-2"
         transform="translate(80.667796,42.482783)" />
      <path
         style="display:inline;fill:none;fill-rule:evenodd;stroke-linecap:round;stroke-linejoin:round"
         d="m 42.902202,81.517206 h 1.86 m -0.929999,0.93 v -1.86"
         fill="none"
         vector-effect="non-scaling-stroke"
         stroke="#ff0000"
         stroke-width="0.1mm"
         stroke-opacity="1"
         id="path1875-4"
         transform="translate(93.667797,26.482783)" />
      <path
         style="display:inline;fill-rule:evenodd;stroke-linecap:round;stroke-linejoin:round"
         d="m 42.902202,81.517206 h 1.86 m -0.929999,0.93 v -1.86"
         fill="none"
         vector-effect="non-scaling-stroke"
         stroke="#ff0000"
         stroke-width="0.1mm"
         stroke-opacity="1"
         id="path1875-7"
         transform="translate(80.667799,26.482783)" />
      <path
         style="display:inline;fill-rule:evenodd;stroke-linecap:round;stroke-linejoin:round"
         d="m 42.902202,81.517206 h 1.86 m -0.929999,0.93 v -1.86"
         fill="none"
         vector-effect="non-scaling-stroke"
         stroke="#ff0000"
         stroke-width="0.1mm"
         stroke-opacity="1"
         id="path1875"
         transform="translate(67.667796,26.482783)" />
      <path
         style="display:inline;fill-rule:evenodd;stroke-linecap:round;stroke-linejoin:round"
         id="path4135-8"
         stroke-opacity="1"
         stroke-width="0.1mm"
         stroke="#ff0000"
         vector-effect="non-scaling-stroke"
         fill="none"
         d="m 100.44797,36.669377 h 1.534 m -0.767,0.767001 v -1.534"
         transform="translate(36.28503,96.330614)" />
      <path
         style="display:inline;fill-rule:evenodd;stroke-linecap:round;stroke-linejoin:round"
         id="path4135-04"
         stroke-opacity="1"
         stroke-width="0.1mm"
         stroke="#ff0000"
         vector-effect="non-scaling-stroke"
         fill="none"
         d="m 100.44797,36.669377 h 1.534 m -0.767,0.767001 v -1.534"
         transform="translate(10.285032,96.330614)" />
      <path
         style="display:inline;fill-rule:evenodd;stroke-linecap:round;stroke-linejoin:round"
         id="path4135-6"
         stroke-opacity="1"
         stroke-width="0.1mm"
         stroke="#ff0000"
         vector-effect="non-scaling-stroke"
         fill="none"
         d="m 100.44797,36.669377 h 1.534 m -0.767,0.767001 v -1.534"
         transform="translate(36.28503,147.33061)" />
      <path
         style="display:inline;fill-rule:evenodd;stroke-linecap:round;stroke-linejoin:round"
         id="path4135-5"
         stroke-opacity="1"
         stroke-width="0.1mm"
         stroke="#ff0000"
         vector-effect="non-scaling-stroke"
         fill="none"
         d="m 100.44797,36.669377 h 1.534 m -0.767,0.767001 v -1.534"
         transform="translate(10.28503,147.33061)" />
      <path
         style="display:inline;fill-rule:evenodd;stroke-linecap:round;stroke-linejoin:round"
         id="path4135-0"
         stroke-opacity="1"
         stroke-width="0.1mm"
         stroke="#ff0000"
         vector-effect="non-scaling-stroke"
         fill="none"
         d="m 100.44797,36.669377 h 1.534 m -0.767,0.767001 v -1.534"
         transform="translate(36.285032,163.33061)" />
      <path
         style="display:inline;fill-rule:evenodd;stroke-linecap:round;stroke-linejoin:round"
         id="path4135"
         stroke-opacity="1"
         stroke-width="0.1mm"
         stroke="#ff0000"
         vector-effect="non-scaling-stroke"
         fill="none"
         d="m 100.44797,36.669377 h 1.534 m -0.767,0.767001 v -1.534"
         transform="translate(10.285032,163.33061)" />
    </g>
  </g>
</svg>
