<?xml version="1.0" encoding="UTF-8" standalone="no"?>
<!-- Created with Inkscape (http://www.inkscape.org/) -->

<svg
   width="210mm"
   height="297mm"
   viewBox="0 0 210 297"
   version="1.1"
   id="svg1"
   inkscape:version="1.4.2 (ebf0e940, 2025-05-08)"
   sodipodi:docname="panel-design.svg"
   inkscape:export-filename="panel-holes.svg"
   inkscape:export-xdpi="96"
   inkscape:export-ydpi="96"
   xmlns:inkscape="http://www.inkscape.org/namespaces/inkscape"
   xmlns:sodipodi="http://sodipodi.sourceforge.net/DTD/sodipodi-0.dtd"
   xmlns="http://www.w3.org/2000/svg"
   xmlns:svg="http://www.w3.org/2000/svg"
   xmlns:fpd="http://www.schaeffer-ag.de">
  <sodipodi:namedview
     id="namedview1"
     pagecolor="#ffffff"
     bordercolor="#000000"
     borderopacity="0.25"
     inkscape:showpageshadow="2"
     inkscape:pageopacity="0.0"
     inkscape:pagecheckerboard="0"
     inkscape:deskcolor="#d1d1d1"
     inkscape:document-units="mm"
     showguides="false"
     inkscape:zoom="1.7977413"
     inkscape:cx="464.1936"
     inkscape:cy="576.27869"
     inkscape:window-width="1920"
     inkscape:window-height="1186"
     inkscape:window-x="315"
     inkscape:window-y="81"
     inkscape:window-maximized="0"
     inkscape:current-layer="layer12">
    <sodipodi:guide
       position="99.999998,189"
       orientation="0,1"
       id="guide2"
       inkscape:locked="false"
       inkscape:label=""
       inkscape:color="rgb(0,134,229)" />
    <sodipodi:guide
       position="111.5,197.00001"
       orientation="-1,0"
       id="guide4"
       inkscape:label=""
       inkscape:locked="false"
       inkscape:color="rgb(0,134,229)" />
    <sodipodi:guide
       position="137.5,197.00001"
       orientation="-1,0"
       id="guide5"
       inkscape:locked="false"
       inkscape:label=""
       inkscape:color="rgb(0,134,229)" />
    <sodipodi:guide
       position="124.5,197.00001"
       orientation="-1,0"
       id="guide6"
       inkscape:locked="false"
       inkscape:label=""
       inkscape:color="rgb(0,134,229)" />
    <sodipodi:guide
       position="149,173"
       orientation="0,1"
       id="guide7"
       inkscape:locked="false"
       inkscape:label=""
       inkscape:color="rgb(0,134,229)" />
    <sodipodi:guide
       position="149,162"
       orientation="0,1"
       id="guide8"
       inkscape:locked="false"
       inkscape:label=""
       inkscape:color="rgb(0,134,229)" />
    <sodipodi:guide
       position="149,145"
       orientation="0,1"
       id="guide9"
       inkscape:locked="false"
       inkscape:label=""
       inkscape:color="rgb(0,134,229)" />
    <sodipodi:guide
       position="149,128"
       orientation="0,1"
       id="guide10"
       inkscape:locked="false"
       inkscape:label=""
       inkscape:color="rgb(0,134,229)" />
    <sodipodi:guide
       position="149,113"
       orientation="0,1"
       id="guide11"
       inkscape:locked="false"
       inkscape:label=""
       inkscape:color="rgb(0,134,229)" />
    <sodipodi:guide
       position="149,97"
       orientation="0,1"
       id="guide12"
       inkscape:locked="false"
       inkscape:label=""
       inkscape:color="rgb(0,134,229)" />
    <sodipodi:guide
       position="99.249998,203.25"
       orientation="0,1"
       id="guide13"
       inkscape:locked="false"
       inkscape:label=""
       inkscape:color="rgb(0,134,229)" />
    <sodipodi:guide
       position="99.249998,80.75"
       orientation="0,1"
       id="guide14"
       inkscape:locked="false"
       inkscape:label=""
       inkscape:color="rgb(0,134,229)" />
    <sodipodi:guide
       position="106.75,77.750002"
       orientation="-1,0"
       id="guide15"
       inkscape:locked="false"
       inkscape:label=""
       inkscape:color="rgb(0,134,229)" />
    <sodipodi:guide
       position="142.25,77.750002"
       orientation="-1,0"
       id="guide16"
       inkscape:locked="false"
       inkscape:label=""
       inkscape:color="rgb(0,134,229)" />
    <sodipodi:guide
       position="99.999998,181"
       orientation="0,1"
       id="guide30"
       inkscape:label=""
       inkscape:locked="false"
       inkscape:color="rgb(0,134,229)" />
    <sodipodi:guide
       position="149,165"
       orientation="0,1"
       id="guide31"
       inkscape:label=""
       inkscape:locked="false"
       inkscape:color="rgb(0,134,229)" />
    <sodipodi:guide
       position="149,137"
       orientation="0,1"
       id="guide32"
       inkscape:label=""
       inkscape:locked="false"
       inkscape:color="rgb(0,134,229)" />
    <sodipodi:guide
       position="149,120"
       orientation="0,1"
       id="guide33"
       inkscape:label=""
       inkscape:locked="false"
       inkscape:color="rgb(0,134,229)" />
    <sodipodi:guide
       position="149,87"
       orientation="0,1"
       id="guide34"
       inkscape:label=""
       inkscape:locked="false"
       inkscape:color="rgb(0,134,229)" />
    <sodipodi:guide
       position="99.249998,196.25"
       orientation="0,1"
       id="guide35"
       inkscape:label=""
       inkscape:locked="false"
       inkscape:color="rgb(0,134,229)" />
  </sodipodi:namedview>
  <defs
     id="defs1" />
  <g
     inkscape:groupmode="layer"
     id="layer2"
     inkscape:label="Panel"
     style="display:inline">
    <rect
       style="fill:none;stroke:#000000;stroke-width:0.1;stroke-linejoin:round;stroke-dasharray:none"
       id="rect1"
       width="50.5"
       height="128.5"
       x="99.25"
       y="90.75" />
  </g>
  <g
     inkscape:groupmode="layer"
     id="layer3"
     inkscape:label="PCB"
     style="display:none">
    <rect
       style="fill:#00ff00;stroke:none;stroke-width:0.866788;stroke-linejoin:round"
       id="rect2"
       width="49"
       height="110"
       x="100"
       y="100" />
  </g>
  <g
     inkscape:label="Holes"
     inkscape:groupmode="layer"
     id="layer1">
    <g
       inkscape:groupmode="layer"
       id="layer5"
       inkscape:label="Holes outlines">
      <path
         id="path16-3"
         fpd:print_element="0"
         fpd:visible="front back"
         stroke-opacity="1"
         stroke-width="0.1mm"
         stroke="#000000"
         vector-effect="non-scaling-stroke"
         fill-opacity="1"
         fill="#ffffff"
         d="m 26.298669,142.4353 a 1.5,1.5 0 1 1 3,0 1.5,1.5 0 1 1 -3,0"
         style="display:inline;fill-rule:evenodd;stroke-linecap:round;stroke-linejoin:round;fill:none"
         transform="translate(78.951331,73.814699)" />
      <path
         id="path16-8"
         fpd:print_element="0"
         fpd:visible="front back"
         stroke-opacity="1"
         stroke-width="0.1mm"
         stroke="#000000"
         vector-effect="non-scaling-stroke"
         fill-opacity="1"
         fill="#ffffff"
         d="m 26.298669,142.4353 a 1.5,1.5 0 1 1 3,0 1.5,1.5 0 1 1 -3,0"
         style="display:inline;fill-rule:evenodd;stroke-linecap:round;stroke-linejoin:round;fill:none"
         transform="translate(114.45133,73.814699)" />
      <path
         id="path16"
         fpd:print_element="0"
         fpd:visible="front back"
         stroke-opacity="1"
         stroke-width="0.1mm"
         stroke="#000000"
         vector-effect="non-scaling-stroke"
         fill-opacity="1"
         fill="#ffffff"
         d="m 26.298669,142.4353 a 1.5,1.5 0 1 1 3,0 1.5,1.5 0 1 1 -3,0"
         style="display:inline;fill-rule:evenodd;stroke-linecap:round;stroke-linejoin:round;fill:none"
         transform="translate(114.45133,-48.68531)" />
      <path
         id="path40"
         fpd:print_element="0"
         fpd:visible="front back"
         stroke-opacity="1"
         stroke-width="0.1mm"
         stroke="#000000"
         vector-effect="non-scaling-stroke"
         fill-opacity="1"
         fill="#ffffff"
         d="m 26.298669,142.4353 a 1.5,1.5 0 1 1 3,0 1.5,1.5 0 1 1 -3,0"
         style="display:inline;fill-rule:evenodd;stroke-linecap:round;stroke-linejoin:round;fill:none"
         transform="translate(78.951331,-48.685315)" />
      <path
         style="display:inline;fill-rule:evenodd;stroke-linecap:round;stroke-linejoin:round;fill:none"
         d="m 40.657202,81.517206 a 3.1750005,3.1750005 0 1 1 6.350001,0 3.1750005,3.1750005 0 1 1 -6.350001,0"
         fill="#ffffff"
         fill-opacity="1"
         vector-effect="non-scaling-stroke"
         stroke="#000000"
         stroke-width="0.1mm"
         stroke-opacity="1"
         fpd:visible="front back"
         fpd:print_element="0"
         id="path1873-8"
         transform="translate(93.667797,87.482783)" />
      <path
         style="display:inline;fill-rule:evenodd;stroke-linecap:round;stroke-linejoin:round;fill:none"
         d="m 40.657202,81.517206 a 3.1750005,3.1750005 0 1 1 6.350001,0 3.1750005,3.1750005 0 1 1 -6.350001,0"
         fill="#ffffff"
         fill-opacity="1"
         vector-effect="non-scaling-stroke"
         stroke="#000000"
         stroke-width="0.1mm"
         stroke-opacity="1"
         fpd:visible="front back"
         fpd:print_element="0"
         id="path1873-2"
         transform="translate(93.667797,70.482793)" />
      <path
         style="display:inline;fill-rule:evenodd;stroke-linecap:round;stroke-linejoin:round;fill:none"
         d="m 40.657202,81.517206 a 3.1750005,3.1750005 0 1 1 6.350001,0 3.1750005,3.1750005 0 1 1 -6.350001,0"
         fill="#ffffff"
         fill-opacity="1"
         vector-effect="non-scaling-stroke"
         stroke="#000000"
         stroke-width="0.1mm"
         stroke-opacity="1"
         fpd:visible="front back"
         fpd:print_element="0"
         id="path1873-3"
         transform="translate(67.667796,87.482783)" />
      <path
         style="display:inline;fill-rule:evenodd;stroke-linecap:round;stroke-linejoin:round;fill:none"
         d="m 40.657202,81.517206 a 3.1750005,3.1750005 0 1 1 6.350001,0 3.1750005,3.1750005 0 1 1 -6.350001,0"
         fill="#ffffff"
         fill-opacity="1"
         vector-effect="non-scaling-stroke"
         stroke="#000000"
         stroke-width="0.1mm"
         stroke-opacity="1"
         fpd:visible="front back"
         fpd:print_element="0"
         id="path1873-5"
         transform="translate(67.667799,70.482793)" />
      <path
         style="display:inline;fill-rule:evenodd;stroke-linecap:round;stroke-linejoin:round;fill:none"
         d="m 40.657202,81.517206 a 3.1750005,3.1750005 0 1 1 6.350001,0 3.1750005,3.1750005 0 1 1 -6.350001,0"
         fill="#ffffff"
         fill-opacity="1"
         vector-effect="non-scaling-stroke"
         stroke="#000000"
         stroke-width="0.1mm"
         stroke-opacity="1"
         fpd:visible="front back"
         fpd:print_element="0"
         id="path1873-4"
         transform="translate(80.667796,42.482783)" />
      <path
         style="display:inline;fill:none;fill-rule:evenodd;stroke-linecap:round;stroke-linejoin:round"
         d="m 40.657202,81.517206 a 3.1750005,3.1750005 0 1 1 6.350001,0 3.1750005,3.1750005 0 1 1 -6.350001,0"
         fill="#ffffff"
         fill-opacity="1"
         vector-effect="non-scaling-stroke"
         stroke="#000000"
         stroke-width="0.1mm"
         stroke-opacity="1"
         fpd:visible="front back"
         fpd:print_element="0"
         id="path1873-0"
         transform="translate(93.667797,26.482783)" />
      <path
         style="display:inline;fill-rule:evenodd;stroke-linecap:round;stroke-linejoin:round;fill:none"
         d="m 40.657202,81.517206 a 3.1750005,3.1750005 0 1 1 6.350001,0 3.1750005,3.1750005 0 1 1 -6.350001,0"
         fill="#ffffff"
         fill-opacity="1"
         vector-effect="non-scaling-stroke"
         stroke="#000000"
         stroke-width="0.1mm"
         stroke-opacity="1"
         fpd:visible="front back"
         fpd:print_element="0"
         id="path1873-9"
         transform="translate(80.667799,26.482783)" />
      <path
         style="display:inline;fill-rule:evenodd;stroke-linecap:round;stroke-linejoin:round;fill:none"
         d="m 40.657202,81.517206 a 3.1750005,3.1750005 0 1 1 6.350001,0 3.1750005,3.1750005 0 1 1 -6.350001,0"
         fill="#ffffff"
         fill-opacity="1"
         vector-effect="non-scaling-stroke"
         stroke="#000000"
         stroke-width="0.1mm"
         stroke-opacity="1"
         fpd:visible="front back"
         fpd:print_element="0"
         id="path1873"
         transform="translate(67.667796,26.482783)" />
      <path
         style="display:inline;fill:none;fill-rule:evenodd;stroke-linecap:round;stroke-linejoin:round"
         id="path4089-3"
         fpd:print_element="0"
         fpd:visible="front back"
         stroke-opacity="1"
         stroke-width="0.1mm"
         stroke="#000000"
         vector-effect="non-scaling-stroke"
         fill-opacity="1"
         fill="#ffffff"
         d="m 134,134.99999 a 3.5000025,3.5000025 0 1 1 7,0 3.5000025,3.5000025 0 1 1 -7,0" />
      <path
         style="display:inline;fill:none;fill-rule:evenodd;stroke-linecap:round;stroke-linejoin:round"
         id="path4089-84"
         fpd:print_element="0"
         fpd:visible="front back"
         stroke-opacity="1"
         stroke-width="0.1mm"
         stroke="#000000"
         vector-effect="non-scaling-stroke"
         fill-opacity="1"
         fill="#ffffff"
         d="m 108,134.99999 a 3.5000025,3.5000025 0 1 1 7,0 3.5000025,3.5000025 0 1 1 -7,0" />
      <path
         style="display:inline;fill-rule:evenodd;stroke-linecap:round;stroke-linejoin:round;fill:none"
         id="path4089-05"
         fpd:print_element="0"
         fpd:visible="front back"
         stroke-opacity="1"
         stroke-width="0.1mm"
         stroke="#000000"
         vector-effect="non-scaling-stroke"
         fill-opacity="1"
         fill="#ffffff"
         d="m 97.714965,36.669377 a 3.5000025,3.5000025 0 1 1 7.000005,0 3.5000025,3.5000025 0 1 1 -7.000005,0"
         transform="translate(36.28503,147.33061)" />
      <path
         style="display:inline;fill:none;fill-rule:evenodd;stroke-linecap:round;stroke-linejoin:round"
         id="path4089-05-4"
         fpd:print_element="0"
         fpd:visible="front back"
         stroke-opacity="1"
         stroke-width="0.1mm"
         stroke="#000000"
         vector-effect="non-scaling-stroke"
         fill-opacity="1"
         fill="#ffffff"
         d="m 120.99999,168.99999 a 3.500005,3.500005 0 1 1 7.00001,0 3.500005,3.500005 0 1 1 -7.00001,0" />
      <path
         style="display:inline;fill:none;fill-rule:evenodd;stroke-linecap:round;stroke-linejoin:round"
         id="path4089-05-4-6"
         fpd:print_element="0"
         fpd:visible="front back"
         stroke-opacity="1"
         stroke-width="0.1mm"
         stroke="#000000"
         vector-effect="non-scaling-stroke"
         fill-opacity="1"
         fill="#ffffff"
         d="m 120.99999,152 a 3.500005,3.500005 0 1 1 7.00001,0 3.500005,3.500005 0 1 1 -7.00001,0" />
      <path
         style="display:inline;fill-rule:evenodd;stroke-linecap:round;stroke-linejoin:round;fill:none"
         id="path4089-8"
         fpd:print_element="0"
         fpd:visible="front back"
         stroke-opacity="1"
         stroke-width="0.1mm"
         stroke="#000000"
         vector-effect="non-scaling-stroke"
         fill-opacity="1"
         fill="#ffffff"
         d="m 97.714965,36.669377 a 3.5000025,3.5000025 0 1 1 7.000005,0 3.5000025,3.5000025 0 1 1 -7.000005,0"
         transform="translate(10.28503,147.33061)" />
      <path
         style="display:inline;fill-rule:evenodd;stroke-linecap:round;stroke-linejoin:round;fill:none"
         id="path4089-0"
         fpd:print_element="0"
         fpd:visible="front back"
         stroke-opacity="1"
         stroke-width="0.1mm"
         stroke="#000000"
         vector-effect="non-scaling-stroke"
         fill-opacity="1"
         fill="#ffffff"
         d="m 97.714965,36.669377 a 3.5000025,3.5000025 0 1 1 7.000005,0 3.5000025,3.5000025 0 1 1 -7.000005,0"
         transform="translate(36.285032,163.33061)" />
      <path
         style="display:inline;fill-rule:evenodd;stroke-linecap:round;stroke-linejoin:round;fill:none"
         id="path4089"
         fpd:print_element="0"
         fpd:visible="front back"
         stroke-opacity="1"
         stroke-width="0.1mm"
         stroke="#000000"
         vector-effect="non-scaling-stroke"
         fill-opacity="1"
         fill="#ffffff"
         d="m 97.714965,36.669377 a 3.5000025,3.5000025 0 1 1 7.000005,0 3.5000025,3.5000025 0 1 1 -7.000005,0"
         transform="translate(10.285032,163.33061)" />
    </g>
    <g
       inkscape:groupmode="layer"
       id="layer6"
       inkscape:label="Hole center marks"
       style="display:inline">
      <path
         style="display:inline;fill-rule:evenodd;stroke-linecap:round;stroke-linejoin:round"
         id="path4135-6-8"
         stroke-opacity="1"
         stroke-width="0.1mm"
         stroke="#ff0000"
         vector-effect="non-scaling-stroke"
         fill="none"
         d="m 123.733,168.99999 h 1.534 m -0.767,0.767 v -1.534" />
      <path
         id="path17-3"
         stroke-opacity="1"
         stroke-width="0.1mm"
         stroke="#ff0000"
         vector-effect="non-scaling-stroke"
         fill="none"
         d="m 26.868669,142.4353 h 1.86 m -0.93,0.93 v -1.86"
         style="display:inline;fill-rule:evenodd;stroke-linecap:round;stroke-linejoin:round"
         transform="translate(78.951331,73.814699)" />
      <path
         id="path17-5"
         stroke-opacity="1"
         stroke-width="0.1mm"
         stroke="#ff0000"
         vector-effect="non-scaling-stroke"
         fill="none"
         d="m 26.868669,142.4353 h 1.86 m -0.93,0.93 v -1.86"
         style="display:inline;fill-rule:evenodd;stroke-linecap:round;stroke-linejoin:round"
         transform="translate(114.45133,73.814699)" />
      <path
         id="path17"
         stroke-opacity="1"
         stroke-width="0.1mm"
         stroke="#ff0000"
         vector-effect="non-scaling-stroke"
         fill="none"
         d="m 26.868669,142.4353 h 1.86 m -0.93,0.93 v -1.86"
         style="display:inline;fill-rule:evenodd;stroke-linecap:round;stroke-linejoin:round"
         transform="translate(114.45133,-48.68531)" />
      <path
         id="path64"
         stroke-opacity="1"
         stroke-width="0.1mm"
         stroke="#ff0000"
         vector-effect="non-scaling-stroke"
         fill="none"
         d="m 26.868669,142.4353 h 1.86 m -0.93,0.93 v -1.86"
         style="display:inline;fill-rule:evenodd;stroke-linecap:round;stroke-linejoin:round"
         transform="translate(78.951331,-48.685315)" />
      <path
         style="display:inline;fill-rule:evenodd;stroke-linecap:round;stroke-linejoin:round"
         d="m 42.902202,81.517206 h 1.86 m -0.929999,0.93 v -1.86"
         fill="none"
         vector-effect="non-scaling-stroke"
         stroke="#ff0000"
         stroke-width="0.1mm"
         stroke-opacity="1"
         id="path1875-5"
         transform="translate(93.667797,87.482783)" />
      <path
         style="display:inline;fill-rule:evenodd;stroke-linecap:round;stroke-linejoin:round"
         d="m 42.902202,81.517206 h 1.86 m -0.929999,0.93 v -1.86"
         fill="none"
         vector-effect="non-scaling-stroke"
         stroke="#ff0000"
         stroke-width="0.1mm"
         stroke-opacity="1"
         id="path1875-1"
         transform="translate(93.667797,70.482793)" />
      <path
         style="display:inline;fill-rule:evenodd;stroke-linecap:round;stroke-linejoin:round"
         d="m 42.902202,81.517206 h 1.86 m -0.929999,0.93 v -1.86"
         fill="none"
         vector-effect="non-scaling-stroke"
         stroke="#ff0000"
         stroke-width="0.1mm"
         stroke-opacity="1"
         id="path1875-9"
         transform="translate(67.667796,87.482783)" />
      <path
         style="display:inline;fill-rule:evenodd;stroke-linecap:round;stroke-linejoin:round"
         d="m 42.902202,81.517206 h 1.86 m -0.929999,0.93 v -1.86"
         fill="none"
         vector-effect="non-scaling-stroke"
         stroke="#ff0000"
         stroke-width="0.1mm"
         stroke-opacity="1"
         id="path1875-8"
         transform="translate(67.667799,70.482793)" />
      <path
         style="display:inline;fill-rule:evenodd;stroke-linecap:round;stroke-linejoin:round"
         d="m 42.902202,81.517206 h 1.86 m -0.929999,0.93 v -1.86"
         fill="none"
         vector-effect="non-scaling-stroke"
         stroke="#ff0000"
         stroke-width="0.1mm"
         stroke-opacity="1"
         id="path1875-2"
         transform="translate(80.667796,42.482783)" />
      <path
         style="display:inline;fill:none;fill-rule:evenodd;stroke-linecap:round;stroke-linejoin:round"
         d="m 42.902202,81.517206 h 1.86 m -0.929999,0.93 v -1.86"
         fill="none"
         vector-effect="non-scaling-stroke"
         stroke="#ff0000"
         stroke-width="0.1mm"
         stroke-opacity="1"
         id="path1875-4"
         transform="translate(93.667797,26.482783)" />
      <path
         style="display:inline;fill-rule:evenodd;stroke-linecap:round;stroke-linejoin:round"
         d="m 42.902202,81.517206 h 1.86 m -0.929999,0.93 v -1.86"
         fill="none"
         vector-effect="non-scaling-stroke"
         stroke="#ff0000"
         stroke-width="0.1mm"
         stroke-opacity="1"
         id="path1875-7"
         transform="translate(80.667799,26.482783)" />
      <path
         style="display:inline;fill-rule:evenodd;stroke-linecap:round;stroke-linejoin:round"
         d="m 42.902202,81.517206 h 1.86 m -0.929999,0.93 v -1.86"
         fill="none"
         vector-effect="non-scaling-stroke"
         stroke="#ff0000"
         stroke-width="0.1mm"
         stroke-opacity="1"
         id="path1875"
         transform="translate(67.667796,26.482783)" />
      <path
         style="display:inline;fill-rule:evenodd;stroke-linecap:round;stroke-linejoin:round"
         id="path4135-8"
         stroke-opacity="1"
         stroke-width="0.1mm"
         stroke="#ff0000"
         vector-effect="non-scaling-stroke"
         fill="none"
         d="m 136.733,134.99999 h 1.534 m -0.767,0.767 v -1.534" />
      <path
         style="display:inline;fill-rule:evenodd;stroke-linecap:round;stroke-linejoin:round"
         id="path4135-04"
         stroke-opacity="1"
         stroke-width="0.1mm"
         stroke="#ff0000"
         vector-effect="non-scaling-stroke"
         fill="none"
         d="m 110.733,134.99999 h 1.534 m -0.767,0.767 v -1.534" />
      <path
         style="display:inline;fill-rule:evenodd;stroke-linecap:round;stroke-linejoin:round"
         id="path4135-6"
         stroke-opacity="1"
         stroke-width="0.1mm"
         stroke="#ff0000"
         vector-effect="non-scaling-stroke"
         fill="none"
         d="m 100.44797,36.669377 h 1.534 m -0.767,0.767001 v -1.534"
         transform="translate(36.28503,147.33061)" />
      <path
         style="display:inline;fill-rule:evenodd;stroke-linecap:round;stroke-linejoin:round"
         id="path4135-5"
         stroke-opacity="1"
         stroke-width="0.1mm"
         stroke="#ff0000"
         vector-effect="non-scaling-stroke"
         fill="none"
         d="m 100.44797,36.669377 h 1.534 m -0.767,0.767001 v -1.534"
         transform="translate(10.28503,147.33061)" />
      <path
         style="display:inline;fill-rule:evenodd;stroke-linecap:round;stroke-linejoin:round"
         id="path4135-0"
         stroke-opacity="1"
         stroke-width="0.1mm"
         stroke="#ff0000"
         vector-effect="non-scaling-stroke"
         fill="none"
         d="m 100.44797,36.669377 h 1.534 m -0.767,0.767001 v -1.534"
         transform="translate(36.285032,163.33061)" />
      <path
         style="display:inline;fill-rule:evenodd;stroke-linecap:round;stroke-linejoin:round"
         id="path4135"
         stroke-opacity="1"
         stroke-width="0.1mm"
         stroke="#ff0000"
         vector-effect="non-scaling-stroke"
         fill="none"
         d="m 100.44797,36.669377 h 1.534 m -0.767,0.767001 v -1.534"
         transform="translate(10.285032,163.33061)" />
      <path
         style="display:inline;fill-rule:evenodd;stroke-linecap:round;stroke-linejoin:round"
         id="path4135-6-9"
         stroke-opacity="1"
         stroke-width="0.1mm"
         stroke="#ff0000"
         vector-effect="non-scaling-stroke"
         fill="none"
         d="m 123.733,152 h 1.534 m -0.767,0.767 v -1.534" />
    </g>
  </g>
  <g
     inkscape:groupmode="layer"
     id="layer11"
     inkscape:label="Text">
    <text
       xml:space="preserve"
       style="font-size:3.52777px;line-height:1;font-family:'Open Gorton';-inkscape-font-specification:'Open Gorton, Normal';text-align:center;writing-mode:lr-tb;direction:ltr;text-anchor:middle;fill:#000000;stroke:none;stroke-width:0.499999;stroke-linejoin:round"
       x="111.5"
       y="210"
       id="text20"
       inkscape:label="Res"><tspan
         sodipodi:role="line"
         id="tspan20"
         style="stroke-width:0.5"
         x="111.5"
         y="210">res</tspan></text>
    <text
       xml:space="preserve"
       style="font-size:3.52777px;line-height:1;font-family:'Open Gorton';-inkscape-font-specification:'Open Gorton, Normal';text-align:center;writing-mode:lr-tb;direction:ltr;text-anchor:middle;fill:#000000;stroke:none;stroke-width:0.499999;stroke-linejoin:round"
       x="137.5"
       y="210"
       id="text21"
       inkscape:label="Freq"><tspan
         sodipodi:role="line"
         id="tspan21"
         style="stroke-width:0.5"
         x="137.5"
         y="210">freq</tspan></text>
    <text
       xml:space="preserve"
       style="font-size:3.52777px;line-height:1;font-family:'Open Gorton';-inkscape-font-specification:'Open Gorton, Normal';text-align:center;writing-mode:lr-tb;direction:ltr;text-anchor:middle;fill:#000000;stroke:none;stroke-width:0.499999;stroke-linejoin:round"
       x="124.5"
       y="177"
       id="text22"
       inkscape:label="V/Oct"><tspan
         sodipodi:role="line"
         id="tspan22"
         style="stroke-width:0.5"
         x="124.5"
         y="177">V/oct</tspan></text>
    <text
       xml:space="preserve"
       style="font-size:3.52777px;line-height:1;font-family:'Open Gorton';-inkscape-font-specification:'Open Gorton, Normal';text-align:center;writing-mode:lr-tb;direction:ltr;text-anchor:middle;fill:#000000;stroke:none;stroke-width:0.499999;stroke-linejoin:round"
       x="124.5"
       y="160"
       id="text23"
       inkscape:label="Ping"><tspan
         sodipodi:role="line"
         id="tspan23"
         style="stroke-width:0.5"
         x="124.5"
         y="160">ping</tspan></text>
    <text
       xml:space="preserve"
       style="font-size:3.52777px;line-height:1;font-family:'Open Gorton';-inkscape-font-specification:'Open Gorton, Normal';text-align:center;writing-mode:lr-tb;direction:ltr;text-anchor:middle;fill:#000000;stroke:none;stroke-width:0.499999;stroke-linejoin:round"
       x="111.5"
       y="160"
       id="text24"
       inkscape:label="In 1"><tspan
         sodipodi:role="line"
         id="tspan24"
         style="stroke-width:0.5"
         x="111.5"
         y="160">in 1</tspan></text>
    <text
       xml:space="preserve"
       style="font-size:3.52777px;line-height:1;font-family:'Open Gorton';-inkscape-font-specification:'Open Gorton, Normal';text-align:center;writing-mode:lr-tb;direction:ltr;text-anchor:middle;fill:#000000;stroke:none;stroke-width:0.499999;stroke-linejoin:round"
       x="137.5"
       y="160"
       id="text25"
       inkscape:label="In 2"><tspan
         sodipodi:role="line"
         id="tspan25"
         style="stroke-width:0.5"
         x="137.5"
         y="160">in 2</tspan></text>
    <text
       xml:space="preserve"
       style="font-size:3.52777px;line-height:1;font-family:'Open Gorton';-inkscape-font-specification:'Open Gorton, Normal';text-align:center;writing-mode:lr-tb;direction:ltr;text-anchor:middle;fill:#000000;stroke:none;stroke-width:0.499999;stroke-linejoin:round"
       x="124.5"
       y="132"
       id="text26"
       inkscape:label="Notch"><tspan
         sodipodi:role="line"
         id="tspan26"
         style="stroke-width:0.5"
         x="124.5"
         y="132">notch</tspan></text>
    <text
       xml:space="preserve"
       style="font-size:3.52777px;line-height:1;font-family:'Open Gorton';-inkscape-font-specification:'Open Gorton, Normal';text-align:center;writing-mode:lr-tb;direction:ltr;text-anchor:middle;fill:#000000;stroke:none;stroke-width:0.499999;stroke-linejoin:round"
       x="111.5"
       y="116"
       id="text27"
       inkscape:label="Low"><tspan
         sodipodi:role="line"
         id="tspan27"
         style="stroke-width:0.5"
         x="111.5"
         y="116">low</tspan></text>
    <text
       xml:space="preserve"
       style="font-size:3.52777px;line-height:1;font-family:'Open Gorton';-inkscape-font-specification:'Open Gorton, Normal';text-align:center;writing-mode:lr-tb;direction:ltr;text-anchor:middle;fill:#000000;stroke:none;stroke-width:0.499999;stroke-linejoin:round"
       x="124.5"
       y="116"
       id="text28"
       inkscape:label="Band"><tspan
         sodipodi:role="line"
         id="tspan28"
         style="stroke-width:0.5"
         x="124.5"
         y="116">band</tspan></text>
    <text
       xml:space="preserve"
       style="font-size:3.52777px;line-height:1;font-family:'Open Gorton';-inkscape-font-specification:'Open Gorton, Normal';text-align:center;writing-mode:lr-tb;direction:ltr;text-anchor:middle;fill:#000000;stroke:none;stroke-width:0.499999;stroke-linejoin:round"
       x="137.5"
       y="116"
       id="text29"
       inkscape:label="High"><tspan
         sodipodi:role="line"
         id="tspan29"
         style="stroke-width:0.5"
         x="137.5"
         y="116">high</tspan></text>
    <text
       xml:space="preserve"
       style="font-size:5.64444px;line-height:1;font-family:'Open Gorton';-inkscape-font-specification:'Open Gorton, Normal';text-align:center;writing-mode:lr-tb;direction:ltr;text-anchor:middle;fill:#000000;stroke:none;stroke-width:0.499999;stroke-linejoin:round"
       x="124.5"
       y="100.75"
       id="text30"
       inkscape:label="SVF Filter"><tspan
         sodipodi:role="line"
         style="font-size:5.64444px;stroke-width:0.5"
         x="124.5"
         y="100.75"
         id="tspan34">Filter</tspan></text>
  </g>
  <g
     inkscape:groupmode="layer"
     id="layer12"
     inkscape:label="Graphics">
    <path
       style="fill:#000000;stroke:#000000;stroke-width:0.499999;stroke-linejoin:round"
       d="M 111.5,138.50417 V 148.825"
       id="path35" />
    <path
       style="fill:#000000;stroke:#000000;stroke-width:0.499999;stroke-linejoin:round"
       d="M 137.5,138.50417 V 148.825"
       id="path36" />
    <path
       style="fill:#000000;stroke:#000000;stroke-width:0.499999;stroke-linejoin:round"
       d="m 111.5,172.17499 v 8.32499"
       id="path37" />
    <path
       style="fill:#000000;stroke:#000000;stroke-width:0.499999;stroke-linejoin:round"
       d="m 111.5,187.49999 v 8.99999"
       id="path38" />
    <path
       style="fill:#000000;stroke:#000000;stroke-width:0.499999;stroke-linejoin:round"
       d="m 137.5,172.17499 v 8.32499"
       id="path39" />
    <path
       style="fill:#000000;stroke:#000000;stroke-width:0.499999;stroke-linejoin:round"
       d="m 137.5,187.49999 v 8.99999"
       id="path41" />
  </g>
  <g
     inkscape:groupmode="layer"
     id="layer4"
     inkscape:label="Hardware"
     style="display:inline">
    <g
       inkscape:groupmode="layer"
       id="layer8"
       inkscape:label="knobs">
      <g
         style="display:inline;stroke-width:0.933944"
         transform="matrix(1.0707277,0,0,1.0707277,2.0619191,-49.958662)"
         id="g5011"
         inkscape:label="knob">
        <path
           sodipodi:type="star"
           style="fill:#000000;stroke:#000000;stroke-width:0.64703"
           id="path5001"
           sodipodi:sides="8"
           sodipodi:cx="102.20907"
           sodipodi:cy="172.74107"
           sodipodi:r1="5.6541638"
           sodipodi:r2="4.8060393"
           sodipodi:arg1="0.77069334"
           sodipodi:arg2="1.1633924"
           inkscape:flatsided="false"
           inkscape:rounded="0.5"
           inkscape:randomized="0"
           d="m 106.26552,176.67995 c -0.76758,0.7905 -1.1405,0.0372 -2.15217,0.4738 -1.01167,0.43659 -0.71941,1.22467 -1.82114,1.24088 -1.10174,0.0162 -0.83277,-0.78014 -1.85684,-1.18679 -1.024075,-0.40665 -1.374677,0.35728 -2.165178,-0.41031 -0.790501,-0.76759 -0.03722,-1.1405 -0.473801,-2.15217 -0.436584,-1.01167 -1.224673,-0.71941 -1.240875,-1.82115 -0.0162,-1.10173 0.78014,-0.83277 1.186787,-1.85684 0.406647,-1.02407 -0.357277,-1.37467 0.410311,-2.16517 0.767588,-0.7905 1.140501,-0.0372 2.152176,-0.4738 1.01167,-0.43659 0.7194,-1.22468 1.82114,-1.24088 1.10173,-0.0162 0.83277,0.78014 1.85684,1.18679 1.02407,0.40665 1.37467,-0.35728 2.16517,0.41031 0.79051,0.76759 0.0372,1.1405 0.47381,2.15217 0.43658,1.01167 1.22467,0.71941 1.24087,1.82114 0.0162,1.10174 -0.78014,0.83278 -1.18679,1.85685 -0.40664,1.02407 0.35728,1.37467 -0.41031,2.16517 z"
           inkscape:transform-center-y="3.5815181e-06"
           inkscape:transform-center-x="3.1642794e-06" />
        <path
           style="fill:#ffffff;stroke:#ffffff;stroke-width:0.247106px;stroke-linecap:butt;stroke-linejoin:miter;stroke-opacity:1"
           d="m 102.20907,172.74107 4.00224,-4.30543"
           id="path5007" />
      </g>
      <g
         style="display:inline;stroke-width:0.933944"
         transform="matrix(1.0707277,0,0,1.0707277,28.061917,-49.958658)"
         id="g2"
         inkscape:label="knob">
        <path
           sodipodi:type="star"
           style="fill:#000000;stroke:#000000;stroke-width:0.64703"
           id="path1"
           sodipodi:sides="8"
           sodipodi:cx="102.20907"
           sodipodi:cy="172.74107"
           sodipodi:r1="5.6541638"
           sodipodi:r2="4.8060393"
           sodipodi:arg1="0.77069334"
           sodipodi:arg2="1.1633924"
           inkscape:flatsided="false"
           inkscape:rounded="0.5"
           inkscape:randomized="0"
           d="m 106.26552,176.67995 c -0.76758,0.7905 -1.1405,0.0372 -2.15217,0.4738 -1.01167,0.43659 -0.71941,1.22467 -1.82114,1.24088 -1.10174,0.0162 -0.83277,-0.78014 -1.85684,-1.18679 -1.024075,-0.40665 -1.374677,0.35728 -2.165178,-0.41031 -0.790501,-0.76759 -0.03722,-1.1405 -0.473801,-2.15217 -0.436584,-1.01167 -1.224673,-0.71941 -1.240875,-1.82115 -0.0162,-1.10173 0.78014,-0.83277 1.186787,-1.85684 0.406647,-1.02407 -0.357277,-1.37467 0.410311,-2.16517 0.767588,-0.7905 1.140501,-0.0372 2.152176,-0.4738 1.01167,-0.43659 0.7194,-1.22468 1.82114,-1.24088 1.10173,-0.0162 0.83277,0.78014 1.85684,1.18679 1.02407,0.40665 1.37467,-0.35728 2.16517,0.41031 0.79051,0.76759 0.0372,1.1405 0.47381,2.15217 0.43658,1.01167 1.22467,0.71941 1.24087,1.82114 0.0162,1.10174 -0.78014,0.83278 -1.18679,1.85685 -0.40664,1.02407 0.35728,1.37467 -0.41031,2.16517 z"
           inkscape:transform-center-y="3.5815181e-06"
           inkscape:transform-center-x="3.1642794e-06" />
        <path
           style="fill:#ffffff;stroke:#ffffff;stroke-width:0.247106px;stroke-linecap:butt;stroke-linejoin:miter;stroke-opacity:1"
           d="m 102.20907,172.74107 4.00224,-4.30543"
           id="path2" />
      </g>
      <g
         style="display:inline;stroke-width:0.933944"
         transform="matrix(1.0707277,0,0,1.0707277,2.0619194,-0.95866215)"
         id="g11"
         inkscape:label="knob">
        <path
           sodipodi:type="star"
           style="fill:#000000;stroke:#000000;stroke-width:0.64703"
           id="path10"
           sodipodi:sides="8"
           sodipodi:cx="102.20907"
           sodipodi:cy="172.74107"
           sodipodi:r1="5.6541638"
           sodipodi:r2="4.8060393"
           sodipodi:arg1="0.77069334"
           sodipodi:arg2="1.1633924"
           inkscape:flatsided="false"
           inkscape:rounded="0.5"
           inkscape:randomized="0"
           d="m 106.26552,176.67995 c -0.76758,0.7905 -1.1405,0.0372 -2.15217,0.4738 -1.01167,0.43659 -0.71941,1.22467 -1.82114,1.24088 -1.10174,0.0162 -0.83277,-0.78014 -1.85684,-1.18679 -1.024075,-0.40665 -1.374677,0.35728 -2.165178,-0.41031 -0.790501,-0.76759 -0.03722,-1.1405 -0.473801,-2.15217 -0.436584,-1.01167 -1.224673,-0.71941 -1.240875,-1.82115 -0.0162,-1.10173 0.78014,-0.83277 1.186787,-1.85684 0.406647,-1.02407 -0.357277,-1.37467 0.410311,-2.16517 0.767588,-0.7905 1.140501,-0.0372 2.152176,-0.4738 1.01167,-0.43659 0.7194,-1.22468 1.82114,-1.24088 1.10173,-0.0162 0.83277,0.78014 1.85684,1.18679 1.02407,0.40665 1.37467,-0.35728 2.16517,0.41031 0.79051,0.76759 0.0372,1.1405 0.47381,2.15217 0.43658,1.01167 1.22467,0.71941 1.24087,1.82114 0.0162,1.10174 -0.78014,0.83278 -1.18679,1.85685 -0.40664,1.02407 0.35728,1.37467 -0.41031,2.16517 z"
           inkscape:transform-center-y="3.5815181e-06"
           inkscape:transform-center-x="3.1642794e-06" />
        <path
           style="fill:#ffffff;stroke:#ffffff;stroke-width:0.247106px;stroke-linecap:butt;stroke-linejoin:miter;stroke-opacity:1"
           d="m 102.20907,172.74107 4.00224,-4.30543"
           id="path11" />
      </g>
      <g
         style="display:inline;stroke-width:0.933944"
         transform="matrix(1.0707277,0,0,1.0707277,28.061919,-0.95866215)"
         id="g13"
         inkscape:label="knob">
        <path
           sodipodi:type="star"
           style="fill:#000000;stroke:#000000;stroke-width:0.64703"
           id="path12"
           sodipodi:sides="8"
           sodipodi:cx="102.20907"
           sodipodi:cy="172.74107"
           sodipodi:r1="5.6541638"
           sodipodi:r2="4.8060393"
           sodipodi:arg1="0.77069334"
           sodipodi:arg2="1.1633924"
           inkscape:flatsided="false"
           inkscape:rounded="0.5"
           inkscape:randomized="0"
           d="m 106.26552,176.67995 c -0.76758,0.7905 -1.1405,0.0372 -2.15217,0.4738 -1.01167,0.43659 -0.71941,1.22467 -1.82114,1.24088 -1.10174,0.0162 -0.83277,-0.78014 -1.85684,-1.18679 -1.024075,-0.40665 -1.374677,0.35728 -2.165178,-0.41031 -0.790501,-0.76759 -0.03722,-1.1405 -0.473801,-2.15217 -0.436584,-1.01167 -1.224673,-0.71941 -1.240875,-1.82115 -0.0162,-1.10173 0.78014,-0.83277 1.186787,-1.85684 0.406647,-1.02407 -0.357277,-1.37467 0.410311,-2.16517 0.767588,-0.7905 1.140501,-0.0372 2.152176,-0.4738 1.01167,-0.43659 0.7194,-1.22468 1.82114,-1.24088 1.10173,-0.0162 0.83277,0.78014 1.85684,1.18679 1.02407,0.40665 1.37467,-0.35728 2.16517,0.41031 0.79051,0.76759 0.0372,1.1405 0.47381,2.15217 0.43658,1.01167 1.22467,0.71941 1.24087,1.82114 0.0162,1.10174 -0.78014,0.83278 -1.18679,1.85685 -0.40664,1.02407 0.35728,1.37467 -0.41031,2.16517 z"
           inkscape:transform-center-y="3.5815181e-06"
           inkscape:transform-center-x="3.1642794e-06" />
        <path
           style="fill:#ffffff;stroke:#ffffff;stroke-width:0.247106px;stroke-linecap:butt;stroke-linejoin:miter;stroke-opacity:1"
           d="m 102.20907,172.74107 4.00224,-4.30543"
           id="path13" />
      </g>
      <g
         style="display:inline;stroke-width:0.933944"
         transform="matrix(1.0707277,0,0,1.0707277,2.0619173,15.041342)"
         id="g15"
         inkscape:label="knob">
        <path
           sodipodi:type="star"
           style="fill:#000000;stroke:#000000;stroke-width:0.64703"
           id="path14"
           sodipodi:sides="8"
           sodipodi:cx="102.20907"
           sodipodi:cy="172.74107"
           sodipodi:r1="5.6541638"
           sodipodi:r2="4.8060393"
           sodipodi:arg1="0.77069334"
           sodipodi:arg2="1.1633924"
           inkscape:flatsided="false"
           inkscape:rounded="0.5"
           inkscape:randomized="0"
           d="m 106.26552,176.67995 c -0.76758,0.7905 -1.1405,0.0372 -2.15217,0.4738 -1.01167,0.43659 -0.71941,1.22467 -1.82114,1.24088 -1.10174,0.0162 -0.83277,-0.78014 -1.85684,-1.18679 -1.024075,-0.40665 -1.374677,0.35728 -2.165178,-0.41031 -0.790501,-0.76759 -0.03722,-1.1405 -0.473801,-2.15217 -0.436584,-1.01167 -1.224673,-0.71941 -1.240875,-1.82115 -0.0162,-1.10173 0.78014,-0.83277 1.186787,-1.85684 0.406647,-1.02407 -0.357277,-1.37467 0.410311,-2.16517 0.767588,-0.7905 1.140501,-0.0372 2.152176,-0.4738 1.01167,-0.43659 0.7194,-1.22468 1.82114,-1.24088 1.10173,-0.0162 0.83277,0.78014 1.85684,1.18679 1.02407,0.40665 1.37467,-0.35728 2.16517,0.41031 0.79051,0.76759 0.0372,1.1405 0.47381,2.15217 0.43658,1.01167 1.22467,0.71941 1.24087,1.82114 0.0162,1.10174 -0.78014,0.83278 -1.18679,1.85685 -0.40664,1.02407 0.35728,1.37467 -0.41031,2.16517 z"
           inkscape:transform-center-y="3.5815181e-06"
           inkscape:transform-center-x="3.1642794e-06" />
        <path
           style="fill:#ffffff;stroke:#ffffff;stroke-width:0.247106px;stroke-linecap:butt;stroke-linejoin:miter;stroke-opacity:1"
           d="m 102.20907,172.74107 4.00224,-4.30543"
           id="path15" />
      </g>
      <g
         style="display:inline;stroke-width:0.933944"
         transform="matrix(1.0707277,0,0,1.0707277,28.061917,15.041338)"
         id="g19"
         inkscape:label="knob">
        <path
           sodipodi:type="star"
           style="fill:#000000;stroke:#000000;stroke-width:0.64703"
           id="path18"
           sodipodi:sides="8"
           sodipodi:cx="102.20907"
           sodipodi:cy="172.74107"
           sodipodi:r1="5.6541638"
           sodipodi:r2="4.8060393"
           sodipodi:arg1="0.77069334"
           sodipodi:arg2="1.1633924"
           inkscape:flatsided="false"
           inkscape:rounded="0.5"
           inkscape:randomized="0"
           d="m 106.26552,176.67995 c -0.76758,0.7905 -1.1405,0.0372 -2.15217,0.4738 -1.01167,0.43659 -0.71941,1.22467 -1.82114,1.24088 -1.10174,0.0162 -0.83277,-0.78014 -1.85684,-1.18679 -1.024075,-0.40665 -1.374677,0.35728 -2.165178,-0.41031 -0.790501,-0.76759 -0.03722,-1.1405 -0.473801,-2.15217 -0.436584,-1.01167 -1.224673,-0.71941 -1.240875,-1.82115 -0.0162,-1.10173 0.78014,-0.83277 1.186787,-1.85684 0.406647,-1.02407 -0.357277,-1.37467 0.410311,-2.16517 0.767588,-0.7905 1.140501,-0.0372 2.152176,-0.4738 1.01167,-0.43659 0.7194,-1.22468 1.82114,-1.24088 1.10173,-0.0162 0.83277,0.78014 1.85684,1.18679 1.02407,0.40665 1.37467,-0.35728 2.16517,0.41031 0.79051,0.76759 0.0372,1.1405 0.47381,2.15217 0.43658,1.01167 1.22467,0.71941 1.24087,1.82114 0.0162,1.10174 -0.78014,0.83278 -1.18679,1.85685 -0.40664,1.02407 0.35728,1.37467 -0.41031,2.16517 z"
           inkscape:transform-center-y="3.5815181e-06"
           inkscape:transform-center-x="3.1642794e-06" />
        <path
           style="fill:#ffffff;stroke:#ffffff;stroke-width:0.247106px;stroke-linecap:butt;stroke-linejoin:miter;stroke-opacity:1"
           d="m 102.20907,172.74107 4.00224,-4.30543"
           id="path19" />
      </g>
    </g>
    <g
       inkscape:groupmode="layer"
       id="layer7"
       inkscape:label="jacks">
      <circle
         transform="rotate(90)"
         style="display:inline;fill:#333333;stroke:#808080;stroke-width:0.980904;stroke-miterlimit:2.4;stroke-dasharray:none"
         id="circle1"
         cx="107.99999"
         cy="-124.5"
         r="3.5095465"
         inkscape:label="jack" />
      <circle
         transform="rotate(90)"
         style="display:inline;fill:#333333;stroke:#808080;stroke-width:0.980904;stroke-miterlimit:2.4;stroke-dasharray:none"
         id="circle2"
         cx="107.99999"
         cy="-111.5"
         r="3.5095465"
         inkscape:label="jack" />
      <circle
         transform="rotate(90)"
         style="display:inline;fill:#333333;stroke:#808080;stroke-width:0.980904;stroke-miterlimit:2.4;stroke-dasharray:none"
         id="circle3"
         cx="107.99999"
         cy="-137.5"
         r="3.5095465"
         inkscape:label="jack" />
      <circle
         transform="rotate(90)"
         style="display:inline;fill:#333333;stroke:#808080;stroke-width:0.980904;stroke-miterlimit:2.4;stroke-dasharray:none"
         id="circle4"
         cx="123.99999"
         cy="-124.5"
         r="3.5095465"
         inkscape:label="jack" />
      <circle
         transform="rotate(90)"
         style="display:inline;fill:#333333;stroke:#808080;stroke-width:0.980904;stroke-miterlimit:2.4;stroke-dasharray:none"
         id="circle5"
         cx="152"
         cy="-111.5"
         r="3.5095465"
         inkscape:label="jack" />
      <circle
         transform="rotate(90)"
         style="display:inline;fill:#333333;stroke:#808080;stroke-width:0.980904;stroke-miterlimit:2.4;stroke-dasharray:none"
         id="circle6"
         cx="152"
         cy="-137.5"
         r="3.5095465"
         inkscape:label="jack" />
      <circle
         transform="rotate(90)"
         style="display:inline;fill:#333333;stroke:#808080;stroke-width:0.980904;stroke-miterlimit:2.4;stroke-dasharray:none"
         id="circle7"
         cx="168.99998"
         cy="-137.5"
         r="3.5095465"
         inkscape:label="jack" />
      <circle
         transform="rotate(90)"
         style="display:inline;fill:#333333;stroke:#808080;stroke-width:0.980904;stroke-miterlimit:2.4;stroke-dasharray:none"
         id="circle8"
         cx="168.99998"
         cy="-111.5"
         r="3.5095465"
         inkscape:label="jack" />
      <circle
         transform="rotate(90)"
         style="display:inline;fill:#333333;stroke:#808080;stroke-width:0.980904;stroke-miterlimit:2.4;stroke-dasharray:none"
         id="circle9"
         cx="152"
         cy="-124.5"
         r="3.5095465"
         inkscape:label="jack" />
      <circle
         transform="rotate(90)"
         style="display:inline;fill:#333333;stroke:#808080;stroke-width:0.980904;stroke-miterlimit:2.4;stroke-dasharray:none"
         id="circle10"
         cx="168.99998"
         cy="-124.5"
         r="3.5095465"
         inkscape:label="jack" />
    </g>
  </g>
</svg>
